<?xml version="1.0" encoding="utf-8"?>
<!-- Generator: Adobe Illustrator 25.0.1, SVG Export Plug-In . SVG Version: 6.00 Build 0)  -->
<svg version="1.1" id="Layer_1" xmlns="http://www.w3.org/2000/svg" xmlns:xlink="http://www.w3.org/1999/xlink" x="0px" y="0px"
	 viewBox="0 0 206 40" style="enable-background:new 0 0 206 40;" xml:space="preserve">
<style type="text/css">
	.st0{fill-rule:evenodd;clip-rule:evenodd;fill:#FFFFFF;}
	.st1{fill:#FFFFFF;}
	.st2{font-family:'OpenSauceSans-Bold';}
	.st3{font-size:24.2459px;}
	.st4{font-family:'OpenSauceSans-Medium';}
</style>
<path class="st0" d="M7.1,3.6C6.6,4.8,6.6,6.2,6.6,9.1V20v10.9c0,2.9,0,4.3,0.5,5.5c0.6,1.4,1.7,2.5,3.2,3.1
	c1.1,0.5,2.5,0.5,5.5,0.5h10.8h10.9c2.9,0,4.4,0,5.5-0.5c1.4-0.6,2.5-1.7,3.1-3.1c0.5-1.2,0.5-2.6,0.5-5.5V20V9.1
	c0-2.9,0-4.3-0.5-5.5c-0.6-1.4-1.7-2.5-3.1-3.1C41.9,0,40.4,0,37.5,0H26.6H15.8c-3,0-4.4,0-5.5,0.5C8.8,1.1,7.7,2.2,7.1,3.6z
	 M33,17.2c-2,0-3.6-1.6-3.6-3.6S31,10,33,10s3.6,1.6,3.6,3.6S35,17.2,33,17.2z M23.9,13.6c0,2-1.7,3.6-3.7,3.6
	c-1.9,0-3.6-1.6-3.6-3.6s1.7-3.6,3.6-3.6C22.2,10,23.9,11.6,23.9,13.6z M33,22.8c-2,0-3.6,1.6-3.6,3.6S31,30,33,30s3.6-1.6,3.6-3.6
	S35,22.8,33,22.8z M20.2,22.8c2,0,3.7,1.6,3.7,3.6S22.2,30,20.2,30c-1.9,0-3.6-1.6-3.6-3.6S18.3,22.8,20.2,22.8z"/>
<text transform="matrix(1 0 0 1 58.2085 30)"><tspan x="0" y="0" class="st1 st2 st3">DIMS </tspan><tspan x="70.3" y="0" class="st1 st4 st3">Issuer</tspan></text>
</svg>
