<svg xmlns="http://www.w3.org/2000/svg" width="194.21" height="40" viewBox="0 0 194.21 40"><path d="M7.14,3.6c-.5,1.2-.5,2.6-.5,5.5V30.9c0,2.9,0,4.3.5,5.5a5.73,5.73,0,0,0,3.2,3.1c1.1.5,2.5.5,5.5.5h21.7c2.9,0,4.4,0,5.5-.5a5.87,5.87,0,0,0,3.1-3.1c.5-1.2.5-2.6.5-5.5V9.1c0-2.9,0-4.3-.5-5.5A5.87,5.87,0,0,0,43,.5c-1.1-.5-2.6-.5-5.5-.5H15.84c-3,0-4.4,0-5.5.5A5.73,5.73,0,0,0,7.14,3.6ZM33,17.2a3.6,3.6,0,1,1,3.6-3.6A3.59,3.59,0,0,1,33,17.2Zm-9.1-3.6a3.65,3.65,0,1,1-3.7-3.6A3.67,3.67,0,0,1,23.94,13.6ZM33,22.8a3.6,3.6,0,1,0,3.6,3.6A3.59,3.59,0,0,0,33,22.8Zm-12.8,0a3.6,3.6,0,1,1-3.6,3.6A3.67,3.67,0,0,1,20.24,22.8Z" transform="translate(-6.64)" style="fill:#fff;fill-rule:evenodd"/><path d="M59.86,11.5h5.38q4.68,0,7.18,2.4t2.49,6.86c0,3-.83,5.24-2.51,6.84S68.34,30,65.24,30H59.86Zm9.93,14c1.09-.94,1.63-2.51,1.63-4.69a6,6,0,0,0-1.65-4.62,6.46,6.46,0,0,0-4.55-1.51H63.35V26.87h1.84A6.81,6.81,0,0,0,69.79,25.45Z" transform="translate(-6.64)" style="fill:#fff"/><path d="M77.51,30V11.5H81V30Z" transform="translate(-6.64)" style="fill:#fff"/><path d="M84.3,11.5h5.77l3.2,11.86a10.76,10.76,0,0,1,.43,3.15h.39a10.75,10.75,0,0,1,.44-3.15L97.71,11.5h5.81V30H100V17.29a28,28,0,0,1,.15-2.86l-.39,0a22.75,22.75,0,0,1-.63,2.9L95.62,30H92.2L88.61,17.29a22.26,22.26,0,0,1-.6-2.9l-.39,0c.08.67.13,1.2.14,1.62s0,.83,0,1.24V30H84.3Z" transform="translate(-6.64)" style="fill:#fff"/><path d="M110.46,29.71a7,7,0,0,1-3-2.05A6.49,6.49,0,0,1,106,24h3.61a3.94,3.94,0,0,0,1.65,2.59,5.37,5.37,0,0,0,2.91.78,4.18,4.18,0,0,0,2.45-.65,2.16,2.16,0,0,0,.92-1.9,1.86,1.86,0,0,0-.58-1.44,3.77,3.77,0,0,0-1.47-.83c-.59-.18-1.39-.39-2.41-.61a25.67,25.67,0,0,1-3.36-.95,5.38,5.38,0,0,1-2.19-1.53,4.13,4.13,0,0,1-.92-2.86,5.07,5.07,0,0,1,.85-3,5.19,5.19,0,0,1,2.32-1.84,8.73,8.73,0,0,1,3.37-.62,9.13,9.13,0,0,1,3.42.64,6.43,6.43,0,0,1,4,5.2H117a3.43,3.43,0,0,0-1.4-2.14,4.36,4.36,0,0,0-2.53-.72,3.77,3.77,0,0,0-2.18.57,1.83,1.83,0,0,0-.83,1.59,1.65,1.65,0,0,0,.56,1.29,4,4,0,0,0,1.38.75q.82.27,2.31.6a25.42,25.42,0,0,1,3.45,1,5.64,5.64,0,0,1,2.32,1.65,4.64,4.64,0,0,1,1,3.08,5.15,5.15,0,0,1-1.83,4.17,7.7,7.7,0,0,1-5.08,1.53A11,11,0,0,1,110.46,29.71Z" transform="translate(-6.64)" style="fill:#fff"/><path d="M130.31,30V11.5h2.87V30Z" transform="translate(-6.64)" style="fill:#fff"/><path d="M138,29a5,5,0,0,1-2.05-3.48h2.69a3.1,3.1,0,0,0,1.2,1.85,4.09,4.09,0,0,0,2.41.65,3.73,3.73,0,0,0,2-.47,1.52,1.52,0,0,0,.75-1.35,1.36,1.36,0,0,0-.46-1.08,3.28,3.28,0,0,0-1.16-.62c-.47-.14-1.09-.29-1.87-.46a19.72,19.72,0,0,1-2.59-.65,4,4,0,0,1-1.7-1.12,3,3,0,0,1-.7-2.13,3.36,3.36,0,0,1,1.43-2.93,6.87,6.87,0,0,1,7.44.15,5.05,5.05,0,0,1,1.89,3.27h-2.49a2.8,2.8,0,0,0-1.14-1.7,3.72,3.72,0,0,0-2.07-.56,3.23,3.23,0,0,0-1.81.44,1.35,1.35,0,0,0-.66,1.19,1.15,1.15,0,0,0,.44.95,3.05,3.05,0,0,0,1.08.55c.43.13,1,.26,1.8.41a19.78,19.78,0,0,1,2.69.67,4.18,4.18,0,0,1,1.79,1.16,3.22,3.22,0,0,1,.74,2.24,3.78,3.78,0,0,1-1.43,3.1,6.22,6.22,0,0,1-4,1.15A7.1,7.1,0,0,1,138,29Z" transform="translate(-6.64)" style="fill:#fff"/><path d="M151.71,29a5,5,0,0,1-2.05-3.48h2.69a3.15,3.15,0,0,0,1.2,1.85,4.1,4.1,0,0,0,2.42.65,3.78,3.78,0,0,0,2-.47,1.52,1.52,0,0,0,.75-1.35,1.39,1.39,0,0,0-.46-1.08,3.42,3.42,0,0,0-1.17-.62c-.47-.14-1.09-.29-1.86-.46a19.92,19.92,0,0,1-2.6-.65,4,4,0,0,1-1.7-1.12,3.07,3.07,0,0,1-.7-2.13,3.38,3.38,0,0,1,1.43-2.93,6.14,6.14,0,0,1,3.64-1,6,6,0,0,1,3.8,1.17,5.11,5.11,0,0,1,1.9,3.27h-2.5a2.76,2.76,0,0,0-1.14-1.7,3.69,3.69,0,0,0-2.06-.56,3.26,3.26,0,0,0-1.82.44,1.34,1.34,0,0,0-.65,1.19,1.15,1.15,0,0,0,.43.95,3.05,3.05,0,0,0,1.08.55c.43.13,1,.26,1.81.41a20.17,20.17,0,0,1,2.69.67,4.15,4.15,0,0,1,1.78,1.16,3.22,3.22,0,0,1,.74,2.24,3.78,3.78,0,0,1-1.43,3.1A6.17,6.17,0,0,1,156,30.27,7.11,7.11,0,0,1,151.71,29Z" transform="translate(-6.64)" style="fill:#fff"/><path d="M164.57,28.06a5,5,0,0,1-.48-1.62,16.59,16.59,0,0,1-.1-2V16.5h2.67v8a4.37,4.37,0,0,0,.7,2.86,2.49,2.49,0,0,0,1.89.68,2.77,2.77,0,0,0,2.26-.92,3.37,3.37,0,0,0,.79-1.58,12.59,12.59,0,0,0,.23-2.69V16.5h2.66V30h-2.66v-.65a2,2,0,0,1,.07-.6,1.9,1.9,0,0,1,.24-.47L172.5,28a5.67,5.67,0,0,1-1.72,1.71,4.79,4.79,0,0,1-6.21-1.69Z" transform="translate(-6.64)" style="fill:#fff"/><path d="M181.06,29.36a6.27,6.27,0,0,1-2.37-2.5,7.36,7.36,0,0,1-.85-3.55,8,8,0,0,1,.76-3.47,6.33,6.33,0,0,1,2.27-2.62,6.4,6.4,0,0,1,3.61-1,7.23,7.23,0,0,1,3.31.77,6,6,0,0,1,2.44,2.32,7.21,7.21,0,0,1,.92,3.75v.72H182a13.56,13.56,0,0,1-1.7-.07l-.09.39a.46.46,0,0,1,.3.18,1.71,1.71,0,0,1,.18.4,3.83,3.83,0,0,0,.22.56,4.4,4.4,0,0,0,1.45,2,3.58,3.58,0,0,0,2.21.73,3.64,3.64,0,0,0,2.21-.67,3.74,3.74,0,0,0,1.33-1.71h2.79a7.16,7.16,0,0,1-2.29,3.4,6.31,6.31,0,0,1-4.09,1.31A6.75,6.75,0,0,1,181.06,29.36Zm.24-7.63a2.28,2.28,0,0,1,.66-.1h5.11a2.5,2.5,0,0,1,.72.1,3.62,3.62,0,0,1,.67.32l.24-.32a1.12,1.12,0,0,1-.29-.25.91.91,0,0,1-.12-.31,2.72,2.72,0,0,0-.32-.82,3.4,3.4,0,0,0-1.39-1.42,4.15,4.15,0,0,0-2-.5,4.06,4.06,0,0,0-2,.5,3.63,3.63,0,0,0-1.38,1.42,3.36,3.36,0,0,0-.34.82,1.48,1.48,0,0,1-.11.32.65.65,0,0,1-.27.24l.21.32A3.12,3.12,0,0,1,181.3,21.73Z" transform="translate(-6.64)" style="fill:#fff"/><path d="M193.79,16.5h2.67v.65a1.91,1.91,0,0,1-.08.59,1.44,1.44,0,0,1-.24.48l.34.21a4.88,4.88,0,0,1,1.74-1.69,4.94,4.94,0,0,1,2.36-.51h.27v2.62h-.73a3.44,3.44,0,0,0-2.52.89,4.82,4.82,0,0,0-1.14,3.59V30h-2.67Z" transform="translate(-6.64)" style="fill:#fff"/></svg>